<svg id="visual" viewBox="0 0 900 230" width="900" height="230" xmlns="http://www.w3.org/2000/svg" xmlns:xlink="http://www.w3.org/1999/xlink" version="1.1">
<path d="M0 168L21.5 179.2C43 190.3 86 212.7 128.8 211.2C171.7 209.7 214.3 184.3 257.2 185C300 185.7 343 212.3 385.8 222.2C428.7 232 471.3 225 514.2 215.7C557 206.3 600 194.7 642.8 185.5C685.7 176.3 728.3 169.7 771.2 171.7C814 173.7 857 184.3 878.5 189.7L900 195L900 0L878.5 0C857 0 814 0 771.2 0C728.3 0 685.7 0 642.8 0C600 0 557 0 514.2 0C471.3 0 428.7 0 385.8 0C343 0 300 0 257.2 0C214.3 0 171.7 0 128.8 0C86 0 43 0 21.5 0L0 0Z" fill="#ddeeba"></path>
<path d="M0 147L21.5 156C43 165 86 183 128.8 188.3C171.7 193.7 214.3 186.3 257.2 183C300 179.7 343 180.3 385.8 183.8C428.7 187.3 471.3 193.7 514.2 184.2C557 174.7 600 149.3 642.8 149C685.7 148.7 728.3 173.3 771.2 177C814 180.7 857 163.3 878.5 154.7L900 146L900 0L878.5 0C857 0 814 0 771.2 0C728.3 0 685.7 0 642.8 0C600 0 557 0 514.2 0C471.3 0 428.7 0 385.8 0C343 0 300 0 257.2 0C214.3 0 171.7 0 128.8 0C86 0 43 0 21.5 0L0 0Z" fill="#85d0af"></path>
<path d="M0 151L21.5 149.8C43 148.7 86 146.3 128.8 146.5C171.7 146.7 214.3 149.3 257.2 144C300 138.7 343 125.3 385.8 125.8C428.7 126.3 471.3 140.7 514.2 146C557 151.3 600 147.7 642.8 137.8C685.7 128 728.3 112 771.2 104.8C814 97.7 857 99.3 878.5 100.2L900 101L900 0L878.5 0C857 0 814 0 771.2 0C728.3 0 685.7 0 642.8 0C600 0 557 0 514.2 0C471.3 0 428.7 0 385.8 0C343 0 300 0 257.2 0C214.3 0 171.7 0 128.8 0C86 0 43 0 21.5 0L0 0Z" fill="#00adb7"></path>
<path d="M0 76L21.5 81C43 86 86 96 128.8 92.7C171.7 89.3 214.3 72.7 257.2 65.8C300 59 343 62 385.8 70.8C428.7 79.7 471.3 94.3 514.2 96C557 97.7 600 86.3 642.8 81.7C685.7 77 728.3 79 771.2 77.5C814 76 857 71 878.5 68.5L900 66L900 0L878.5 0C857 0 814 0 771.2 0C728.3 0 685.7 0 642.8 0C600 0 557 0 514.2 0C471.3 0 428.7 0 385.8 0C343 0 300 0 257.2 0C214.3 0 171.7 0 128.8 0C86 0 43 0 21.5 0L0 0Z" fill="#0084bd"></path>
<path d="M0 52L21.5 55.7C43 59.3 86 66.7 128.8 62.2C171.7 57.7 214.3 41.3 257.2 38.2C300 35 343 45 385.8 48.7C428.7 52.3 471.3 49.7 514.2 48.5C557 47.3 600 47.7 642.8 46.8C685.7 46 728.3 44 771.2 42.8C814 41.7 857 41.3 878.5 41.2L900 41L900 0L878.5 0C857 0 814 0 771.2 0C728.3 0 685.7 0 642.8 0C600 0 557 0 514.2 0C471.3 0 428.7 0 385.8 0C343 0 300 0 257.2 0C214.3 0 171.7 0 128.8 0C86 0 43 0 21.5 0L0 0Z" fill="#1952a8">
</path>
</svg>
