<svg width="831.265625px" height="121.39999999999999px" xmlns="http://www.w3.org/2000/svg" viewBox="-165.6328125 14.300000000000004 831.265625 121.39999999999999" style="background: rgba(230, 245, 206, 0);" preserveAspectRatio="xMidYMid"><defs>
  <filter id="editing-scratch" x="-100%" y="-100%" width="300%" height="300%">
    <!-- COLOR -->
    <feFlood flood-color="#bce1aa" flood-opacity="0.75" result="COLOR-blu"></feFlood>
    <feFlood flood-color="#6e8763" flood-opacity="0.4" result="COLOR-red"></feFlood>
    <!-- COLOR END -->

    <!-- Texture -->
    <feTurbulence baseFrequency=".05" type="fractalNoise" numOctaves="3" seed="0" result="Texture_10"></feTurbulence>
    <feColorMatrix type="matrix" values="0 0 0 0 0,
    0 0 0 0 0,
    0 0 0 0 0,
    0 0 0 -2.1 1.1" in="Texture_10" result="Texture_20"></feColorMatrix>

    <feColorMatrix result="Texture_30" type="matrix" values="0 0 0 0 0,
    0 0 0 0 0,
    0 0 0 0 0,
    0 0 0 -1.7 1.8" in="Texture_10"></feColorMatrix>
    <!-- Texture -->

    <!-- FILL -->
    <feOffset dx="-3" dy="4" in="SourceAlpha" result="FILL_10"></feOffset>
    <feDisplacementMap scale="17" in="FILL_10" in2="Texture_10" result="FILL_20"></feDisplacementMap>
    <feComposite operator="in" in="Texture_30" in2="FILL_20" result="FILL_40"></feComposite>
    <feComposite operator="in" in="COLOR-blu" in2="FILL_40" result="FILL_50"></feComposite>
    <!-- FILL END-->

    <!-- OUTLINE -->
    <feMorphology operator="dilate" radius="3" in="SourceGraphic" result="OUTLINE_10"></feMorphology>
    <feComposite operator="out" in="OUTLINE_10" in2="SourceGraphic" result="OUTLINE_20"></feComposite>
    <feDisplacementMap scale="7" in="OUTLINE_20" in2="Texture_10" result="OUTLINE_30"></feDisplacementMap>
    <feComposite operator="arithmetic" k2="-1" k3="1" in="Texture_20" in2="OUTLINE_30" result="OUTLINE_40"></feComposite>
    <!-- OUTLINE END-->

    <!-- BEVEL OUTLINE -->
    <feConvolveMatrix order="8,8" divisor="1" kernelMatrix="1 0 0 0 0 0 0 0 0 1 0 0 0 0 0 0 0 0 1 0 0 0 0 0 0 0 0 1 0 0 0 0 0 0 0 0 1 0 0 0 0 0 0 0 0 1 0 0 0 0 0 0 0 0 1 0 0 0 0 0 0 0 0 1 " in="SourceGraphic" result="BEVEL_10"></feConvolveMatrix>
    <feMorphology operator="dilate" radius="2" in="BEVEL_10" result="BEVEL_20"></feMorphology>
    <feComposite operator="out" in="BEVEL_20" in2="BEVEL_10" result="BEVEL_30"></feComposite>
    <feDisplacementMap scale="7" in="BEVEL_30" in2="Texture_10" result="BEVEL_40"></feDisplacementMap>
    <feComposite operator="arithmetic" k2="-1" k3="1" in="Texture_20" in2="BEVEL_40" result="BEVEL_50"></feComposite>
    <feOffset dx="-7" dy="-7" in="BEVEL_50" result="BEVEL_60"></feOffset>
    <feComposite operator="out" in="BEVEL_60" in2="OUTLINE_10" result="BEVEL_70"></feComposite>
    <!-- BEVEL OUTLINE END -->

    <!-- BEVEL FILL -->
    <feOffset dx="-9" dy="-9" in="BEVEL_10" result="BEVEL-FILL_10"></feOffset>
    <feComposite operator="out" in="BEVEL-FILL_10" in2="OUTLINE_10" result="BEVEL-FILL_20"></feComposite>
    <feDisplacementMap scale="17" in="BEVEL-FILL_20" in2="Texture_10" result="BEVEL-FILL_30"></feDisplacementMap>
    <feComposite operator="in" in="COLOR-red" in2="BEVEL-FILL_30" result="BEVEL-FILL_50"></feComposite> <!-- -->
    <!-- BEVEL FILL END-->

    <feMerge result="merge2">
     <feMergeNode in="BEVEL-FILL_50"></feMergeNode>
     <feMergeNode in="BEVEL_70"></feMergeNode>
     <feMergeNode in="FILL_50"></feMergeNode>
      <feMergeNode in="OUTLINE_40"></feMergeNode>
    </feMerge>
  </filter>
</defs>
<g filter="url(#editing-scratch)"><g transform="translate(-47.88501253724098, 104.79000091552734)"><path d="M24.96-4.80L24.96-4.80L24.96-4.80Q24.96-9.28 26.75-18.24L26.75-18.24L17.28-18.24L13.76 0L0.38 0L8.51-42.24L22.02-42.24L18.30-23.36L27.78-23.36L31.30-42.24L44.80-42.24L44.80-42.24Q43.90-37.50 42.75-32.19L42.75-32.19L40.58-21.76L40.58-21.76Q38.14-9.60 38.14-4.29L38.14-4.29L38.14-4.29Q38.14-2.11 38.85-0.90L38.85-0.90L38.85-0.90Q35.65 1.28 31.90 1.28L31.90 1.28L31.90 1.28Q28.16 1.28 26.56-0.51L26.56-0.51L26.56-0.51Q24.96-2.30 24.96-4.80ZM72.26-10.82L72.26-10.82L72.26-10.82Q73.86-9.73 73.86-7.33L73.86-7.33L73.86-7.33Q73.86-4.93 72.64-3.39L72.64-3.39L72.64-3.39Q71.42-1.86 69.44-0.83L69.44-0.83L69.44-0.83Q65.34 1.28 60.93 1.28L60.93 1.28L60.93 1.28Q56.51 1.28 53.92 0.32L53.92 0.32L53.92 0.32Q51.33-0.64 49.60-2.43L49.60-2.43L49.60-2.43Q46.21-5.82 46.21-12.03L46.21-12.03L46.21-12.03Q46.21-21.70 51.46-27.58L51.46-27.58L51.46-27.58Q57.09-33.92 66.88-33.92L66.88-33.92L66.88-33.92Q72.96-33.92 75.97-31.36L75.97-31.36L75.97-31.36Q78.21-29.44 78.21-26.30L78.21-26.30L78.21-26.30Q78.21-15.04 58.75-15.04L58.75-15.04L58.75-15.04Q58.50-13.38 58.50-11.97L58.50-11.97L58.50-11.97Q58.50-9.02 59.81-7.90L59.81-7.90L59.81-7.90Q61.12-6.78 63.55-6.78L63.55-6.78L63.55-6.78Q65.98-6.78 68.58-7.90L68.58-7.90L68.58-7.90Q71.17-9.02 72.26-10.82ZM59.20-17.79L59.20-17.79L59.20-17.79Q63.74-17.79 66.37-20.61L66.37-20.61L66.37-20.61Q68.99-23.30 68.99-27.58L68.99-27.58L68.99-27.58Q68.99-29.06 68.45-29.86L68.45-29.86L68.45-29.86Q67.90-30.66 66.82-30.66L66.82-30.66L66.82-30.66Q65.73-30.66 64.80-30.24L64.80-30.24L64.80-30.24Q63.87-29.82 62.91-28.42L62.91-28.42L62.91-28.42Q60.54-25.22 59.20-17.79ZM100.74-7.23L100.74-7.23L100.74-7.23Q97.41-3.78 91.33-3.78L91.33-3.78L91.33-3.78Q83.71-3.78 82.11-9.34L82.11-9.34L82.11-9.34Q81.60-11.01 81.60-12.86L81.60-12.86L81.60-12.86Q81.60-14.72 81.98-16.64L81.98-16.64L84.99-32.64L97.98-33.92L94.46-15.30L94.46-15.30Q94.34-14.46 94.14-13.57L94.14-13.57L94.14-13.57Q93.95-12.67 93.95-11.74L93.95-11.74L93.95-11.74Q93.95-10.82 94.27-10.21L94.27-10.21L94.27-10.21Q94.59-9.60 95.04-9.22L95.04-9.22L95.04-9.22Q95.81-8.70 97.18-8.70L97.18-8.70L97.18-8.70Q98.56-8.70 99.74-10.37L99.74-10.37L99.74-10.37Q100.93-12.03 101.50-14.91L101.50-14.91L105.02-32.64L117.63-33.92L112.83-8.77L112.83-8.77Q110.46 3.52 105.60 8.38L105.60 8.38L105.60 8.38Q103.10 10.88 99.87 11.87L99.87 11.87L99.87 11.87Q96.64 12.86 92.48 12.86L92.48 12.86L92.48 12.86Q85.76 12.86 81.92 10.75L81.92 10.75L81.92 10.75Q78.08 8.64 78.08 5.12L78.08 5.12L78.08 5.12Q78.08 2.50 80.06 0.99L80.06 0.99L80.06 0.99Q82.05-0.51 85.12-0.51L85.12-0.51L85.12-0.51Q87.81-0.51 89.86 0.64L89.86 0.64L89.86 0.64Q91.07 1.34 91.65 2.24L91.65 2.24L91.65 2.24Q90.18 3.52 90.18 5.63L90.18 5.63L90.18 5.63Q90.18 8.45 92.74 8.45L92.74 8.45L92.74 8.45Q96.96 8.45 99.39-1.28L99.39-1.28L99.39-1.28Q100.10-4.16 100.74-7.23ZM118.21-3.78L118.21-3.78L118.21-3.78Q118.21-6.21 120.03-7.52L120.03-7.52L120.03-7.52Q121.86-8.83 124.54-8.83L124.54-8.83L124.54-8.83Q127.23-8.83 128.93-7.52L128.93-7.52L128.93-7.52Q130.62-6.21 130.62-3.78L130.62-3.78L130.62-3.78Q130.62-1.34 128.74 0L128.74 0L128.74 0Q126.85 1.34 124.16 1.34L124.16 1.34L124.16 1.34Q121.47 1.34 119.84 0L119.84 0L119.84 0Q118.21-1.34 118.21-3.78ZM121.66-15.81L121.66-15.81L121.66-15.81Q121.66-16.26 121.79-16.90L121.79-16.90L126.78-42.62L126.78-42.62Q129.15-43.52 131.97-43.52L131.97-43.52L131.97-43.52Q134.78-43.52 136.26-41.73L136.26-41.73L136.26-41.73Q137.73-39.94 137.73-37.28L137.73-37.28L137.73-37.28Q137.73-34.62 136.70-31.65L136.70-31.65L136.70-31.65Q135.68-28.67 134.43-25.66L134.43-25.66L134.43-25.66Q133.18-22.66 132.13-19.55L132.13-19.55L132.13-19.55Q131.07-16.45 131.01-13.18L131.01-13.18L131.01-13.18Q129.54-11.52 126.98-11.52L126.98-11.52L126.98-11.52Q124.42-11.52 123.04-12.70L123.04-12.70L123.04-12.70Q121.66-13.89 121.66-15.81ZM156.80-31.17L156.80-31.17L156.80-31.17Q154.62-32.83 154.62-36.38L154.62-36.38L154.62-36.38Q154.62-39.94 156.96-41.79L156.96-41.79L156.96-41.79Q159.30-43.65 163.33-43.65L163.33-43.65L163.33-43.65Q165.89-43.65 171.97-42.75L171.97-42.75L176.32-42.11L176.32-42.11Q178.50-41.86 180.77-41.86L180.77-41.86L180.77-41.86Q183.04-41.86 184.58-42.82L184.58-42.82L184.58-42.82Q186.88-40.77 186.88-37.82L186.88-37.82L186.88-37.82Q186.88-34.88 184.26-32.77L184.26-32.77L184.26-32.77Q181.57-30.53 178.11-30.53L178.11-30.53L178.11-30.53Q176.45-30.53 173.76-30.98L173.76-30.98L173.76-30.98Q170.62-21.12 170.62-14.27L170.62-14.27L170.62-14.27Q170.62-7.42 174.08-3.84L174.08-3.84L174.08-3.84Q172.48-0.96 170.11 0.16L170.11 0.16L170.11 0.16Q167.74 1.28 164.19 1.28L164.19 1.28L164.19 1.28Q160.64 1.28 158.43-0.67L158.43-0.67L158.43-0.67Q156.22-2.62 156.22-6.66L156.22-6.66L156.22-6.66Q156.22-11.33 158.78-19.01L158.78-19.01L158.78-19.01Q161.34-26.62 165.18-32.45L165.18-32.45L165.18-32.45Q163.33-32.64 161.41-32.64L161.41-32.64L161.41-32.64Q157.44-32.64 156.80-31.17ZM217.02-7.10L217.02-7.10L217.02-7.10Q217.02-4.29 219.90-3.46L219.90-3.46L219.90-3.46Q219.20-1.09 216.45 0.19L216.45 0.19L216.45 0.19Q214.14 1.28 211.62 1.28L211.62 1.28L211.62 1.28Q209.09 1.28 207.78 0.61L207.78 0.61L207.78 0.61Q206.46-0.06 205.76-1.15L205.76-1.15L205.76-1.15Q204.61-2.82 204.61-5.95L204.61-5.95L204.61-5.95Q204.61-7.81 205.63-12.93L205.63-12.93L206.53-17.79L206.53-17.79Q207.62-23.36 207.62-25.41L207.62-25.41L207.62-25.41Q207.62-28.99 205.63-28.99L205.63-28.99L205.63-28.99Q203.14-28.99 201.54-25.34L201.54-25.34L201.54-25.34Q200.90-23.94 200.45-21.82L200.45-21.82L196.10 0L183.23 1.28L192.26-44.80L205.12-46.08L204.61-43.52L204.61-43.52Q202.82-33.66 201.28-30.34L201.28-30.34L201.28-30.34Q204.86-33.92 211.46-33.92L211.46-33.92L211.46-33.92Q218.43-33.92 219.71-29.31L219.71-29.31L219.71-29.31Q220.16-27.84 220.16-26.56L220.16-26.56L220.16-26.56Q220.16-25.28 220.06-24.29L220.06-24.29L220.06-24.29Q219.97-23.30 219.65-21.50L219.65-21.50L218.82-16.90L217.34-9.66L217.34-9.66Q217.02-8.19 217.02-7.10ZM240.45-3.52L240.45-3.52L240.45-3.52Q238.46 1.28 232.13 1.28L232.13 1.28L232.13 1.28Q228.86 1.28 226.82-0.96L226.82-0.96L226.82-0.96Q225.09-2.94 225.09-4.93L225.09-4.93L225.09-4.93Q225.09-10.11 227.46-20.22L227.46-20.22L229.82-32.64L242.82-33.92L238.91-13.70L238.91-13.70Q237.82-8.96 237.82-7.30L237.82-7.30L237.82-7.30Q237.82-3.65 240.45-3.52ZM230.98-41.54L230.98-41.54L230.98-41.54Q230.98-44.03 233.06-45.38L233.06-45.38L233.06-45.38Q235.14-46.72 238.14-46.72L238.14-46.72L238.14-46.72Q241.15-46.72 242.98-45.38L242.98-45.38L242.98-45.38Q244.80-44.03 244.80-41.54L244.80-41.54L244.80-41.54Q244.80-39.04 242.78-37.76L242.78-37.76L242.78-37.76Q240.77-36.48 237.76-36.48L237.76-36.48L237.76-36.48Q234.75-36.48 232.86-37.76L232.86-37.76L232.86-37.76Q230.98-39.04 230.98-41.54ZM265.02-22.46L265.02-22.46L265.02-22.46Q265.92-24.83 265.92-26.88L265.92-26.88L265.92-26.88Q265.92-30.66 262.85-30.66L262.85-30.66L262.85-30.66Q261.25-30.66 259.94-29.22L259.94-29.22L259.94-29.22Q258.62-27.78 258.62-25.98L258.62-25.98L258.62-25.98Q258.62-24.70 259.65-23.68L259.65-23.68L259.65-23.68Q261.12-22.27 264.90-19.97L264.90-19.97L264.90-19.97Q268.67-17.66 270.11-15.78L270.11-15.78L270.11-15.78Q271.55-13.89 271.55-11.30L271.55-11.30L271.55-11.30Q271.55-8.70 270.30-6.34L270.30-6.34L270.30-6.34Q269.06-3.97 266.82-2.30L266.82-2.30L266.82-2.30Q262.02 1.28 254.34 1.28L254.34 1.28L254.34 1.28Q250.18 1.28 246.98-0.90L246.98-0.90L246.98-0.90Q243.78-3.01 243.78-5.50L243.78-5.50L243.78-5.50Q243.78-8 245.60-9.47L245.60-9.47L245.60-9.47Q247.42-10.94 250.11-10.94L250.11-10.94L250.11-10.94Q252.80-10.94 254.46-9.92L254.46-9.92L254.46-9.92Q253.63-7.81 253.63-6.40L253.63-6.40L253.63-6.40Q253.63-2.18 257.22-2.18L257.22-2.18L257.22-2.18Q258.75-2.18 259.78-3.14L259.78-3.14L259.78-3.14Q260.80-4.10 260.80-5.76L260.80-5.76L260.80-5.76Q260.80-9.02 255.30-12.48L255.30-12.48L255.30-12.48Q250.82-15.42 249.79-16.58L249.79-16.58L249.79-16.58Q248.06-18.62 248.06-21.18L248.06-21.18L248.06-21.18Q248.06-23.74 249.28-26.18L249.28-26.18L249.28-26.18Q250.50-28.61 252.74-30.34L252.74-30.34L252.74-30.34Q257.41-33.92 265.54-33.92L265.54-33.92L265.54-33.92Q269.70-33.92 272.16-32.26L272.16-32.26L272.16-32.26Q274.62-30.59 274.62-27.78L274.62-27.78L274.62-27.78Q274.62-24.96 272.93-23.36L272.93-23.36L272.93-23.36Q271.23-21.76 268.16-21.76L268.16-21.76L268.16-21.76Q266.05-21.76 265.02-22.46ZM305.54-3.52L305.54-3.52L305.54-3.52Q303.55 1.28 297.22 1.28L297.22 1.28L297.22 1.28Q293.95 1.28 291.90-0.96L291.90-0.96L291.90-0.96Q290.18-2.94 290.18-4.93L290.18-4.93L290.18-4.93Q290.18-10.11 292.54-20.22L292.54-20.22L294.91-32.64L307.90-33.92L304-13.70L304-13.70Q302.91-8.96 302.91-7.30L302.91-7.30L302.91-7.30Q302.91-3.65 305.54-3.52ZM296.06-41.54L296.06-41.54L296.06-41.54Q296.06-44.03 298.14-45.38L298.14-45.38L298.14-45.38Q300.22-46.72 303.23-46.72L303.23-46.72L303.23-46.72Q306.24-46.72 308.06-45.38L308.06-45.38L308.06-45.38Q309.89-44.03 309.89-41.54L309.89-41.54L309.89-41.54Q309.89-39.04 307.87-37.76L307.87-37.76L307.87-37.76Q305.86-36.48 302.85-36.48L302.85-36.48L302.85-36.48Q299.84-36.48 297.95-37.76L297.95-37.76L297.95-37.76Q296.06-39.04 296.06-41.54ZM330.11-22.46L330.11-22.46L330.11-22.46Q331.01-24.83 331.01-26.88L331.01-26.88L331.01-26.88Q331.01-30.66 327.94-30.66L327.94-30.66L327.94-30.66Q326.34-30.66 325.02-29.22L325.02-29.22L325.02-29.22Q323.71-27.78 323.71-25.98L323.71-25.98L323.71-25.98Q323.71-24.70 324.74-23.68L324.74-23.68L324.74-23.68Q326.21-22.27 329.98-19.97L329.98-19.97L329.98-19.97Q333.76-17.66 335.20-15.78L335.20-15.78L335.20-15.78Q336.64-13.89 336.64-11.30L336.64-11.30L336.64-11.30Q336.64-8.70 335.39-6.34L335.39-6.34L335.39-6.34Q334.14-3.97 331.90-2.30L331.90-2.30L331.90-2.30Q327.10 1.28 319.42 1.28L319.42 1.28L319.42 1.28Q315.26 1.28 312.06-0.90L312.06-0.90L312.06-0.90Q308.86-3.01 308.86-5.50L308.86-5.50L308.86-5.50Q308.86-8 310.69-9.47L310.69-9.47L310.69-9.47Q312.51-10.94 315.20-10.94L315.20-10.94L315.20-10.94Q317.89-10.94 319.55-9.92L319.55-9.92L319.55-9.92Q318.72-7.81 318.72-6.40L318.72-6.40L318.72-6.40Q318.72-2.18 322.30-2.18L322.30-2.18L322.30-2.18Q323.84-2.18 324.86-3.14L324.86-3.14L324.86-3.14Q325.89-4.10 325.89-5.76L325.89-5.76L325.89-5.76Q325.89-9.02 320.38-12.48L320.38-12.48L320.38-12.48Q315.90-15.42 314.88-16.58L314.88-16.58L314.88-16.58Q313.15-18.62 313.15-21.18L313.15-21.18L313.15-21.18Q313.15-23.74 314.37-26.18L314.37-26.18L314.37-26.18Q315.58-28.61 317.82-30.34L317.82-30.34L317.82-30.34Q322.50-33.92 330.62-33.92L330.62-33.92L330.62-33.92Q334.78-33.92 337.25-32.26L337.25-32.26L337.25-32.26Q339.71-30.59 339.71-27.78L339.71-27.78L339.71-27.78Q339.71-24.96 338.02-23.36L338.02-23.36L338.02-23.36Q336.32-21.76 333.25-21.76L333.25-21.76L333.25-21.76Q331.14-21.76 330.11-22.46ZM361.34 0L365.06-18.82L365.06-18.82Q363.20-36.16 356.67-39.87L356.67-39.87L356.67-39.87Q358.02-41.54 360.19-42.46L360.19-42.46L360.19-42.46Q362.37-43.39 364.99-43.39L364.99-43.39L364.99-43.39Q367.62-43.39 369.60-42.46L369.60-42.46L369.60-42.46Q371.58-41.54 372.86-39.55L372.86-39.55L372.86-39.55Q375.30-35.78 375.30-26.75L375.30-26.75L375.30-22.14L375.30-22.14Q379.14-33.41 382.98-38.27L382.98-38.27L382.98-38.27Q386.88-43.26 391.74-43.26L391.74-43.26L391.74-43.26Q393.66-43.26 394.94-42.27L394.94-42.27L394.94-42.27Q396.22-41.28 396.86-39.81L396.86-39.81L396.86-39.81Q391.94-37.63 387.20-31.36L387.20-31.36L387.20-31.36Q382.46-25.09 379.39-16.32L379.39-16.32L375.62 0L361.34 0ZM413.95-2.69L413.95-2.69L413.95-2.69Q410.88 1.28 403.26 1.28L403.26 1.28L403.26 1.28Q399.30 1.28 396.42-1.12L396.42-1.12L396.42-1.12Q393.54-3.52 393.54-6.98L393.54-6.98L393.54-6.98Q393.54-8.90 393.73-9.86L393.73-9.86L398.02-32.64L411.01-33.92L406.34-9.22L406.34-9.22Q406.08-7.81 406.08-6.98L406.08-6.98L406.08-6.98Q406.08-3.26 408.32-3.26L408.32-3.26L408.32-3.26Q410.82-3.26 412.61-6.66L412.61-6.66L412.61-6.66Q413.18-7.74 413.44-9.15L413.44-9.15L417.98-32.64L430.59-33.92L425.86-8.96L425.86-8.96Q425.66-8 425.66-6.98L425.66-6.98L425.66-6.98Q425.66-5.95 426.24-4.83L426.24-4.83L426.24-4.83Q426.82-3.71 428.67-3.46L428.67-3.46L428.67-3.46Q428.29-1.92 426.94-0.90L426.94-0.90L426.94-0.90Q424.13 1.28 421.09 1.28L421.09 1.28L421.09 1.28Q418.05 1.28 416.26 0.19L416.26 0.19L416.26 0.19Q414.46-0.90 413.95-2.69ZM466.24-7.10L466.24-7.10L466.24-7.10Q466.24-4.29 469.12-3.46L469.12-3.46L469.12-3.46Q468.42-1.09 465.66 0.19L465.66 0.19L465.66 0.19Q463.36 1.28 460.83 1.28L460.83 1.28L460.83 1.28Q458.30 1.28 456.99 0.61L456.99 0.61L456.99 0.61Q455.68-0.06 454.98-1.15L454.98-1.15L454.98-1.15Q453.82-2.82 453.82-5.95L453.82-5.95L453.82-5.95Q453.82-7.81 454.85-12.93L454.85-12.93L455.74-17.79L455.74-17.79Q456.83-23.36 456.83-25.41L456.83-25.41L456.83-25.41Q456.83-28.99 454.85-28.99L454.85-28.99L454.85-28.99Q452.35-28.99 450.75-25.34L450.75-25.34L450.75-25.34Q450.11-23.94 449.66-21.82L449.66-21.82L445.31 0L432.45 1.28L441.47-44.80L454.34-46.08L453.82-43.52L453.82-43.52Q452.03-33.66 450.50-30.34L450.50-30.34L450.50-30.34Q454.08-33.92 460.67-33.92L460.67-33.92L460.67-33.92Q467.65-33.92 468.93-29.31L468.93-29.31L468.93-29.31Q469.38-27.84 469.38-26.56L469.38-26.56L469.38-26.56Q469.38-25.28 469.28-24.29L469.28-24.29L469.28-24.29Q469.18-23.30 468.86-21.50L468.86-21.50L468.03-16.90L466.56-9.66L466.56-9.66Q466.24-8.19 466.24-7.10ZM477.09-1.92L477.09-1.92L477.09-1.92Q475.58-3.58 474.91-6.21L474.91-6.21L474.91-6.21Q474.24-8.83 474.24-13.12L474.24-13.12L474.24-13.12Q474.24-17.41 475.71-21.31L475.71-21.31L475.71-21.31Q477.18-25.22 479.87-28.03L479.87-28.03L479.87-28.03Q485.38-33.92 494.46-33.92L494.46-33.92L494.46-33.92Q497.73-33.92 500.10-32.83L500.10-32.83L511.04-33.92L506.30-8.96L506.30-8.96Q506.11-8.19 506.11-6.78L506.11-6.78L506.11-6.78Q506.11-5.38 506.98-4.48L506.98-4.48L506.98-4.48Q507.84-3.58 509.12-3.46L509.12-3.46L509.12-3.46Q508.48-1.28 506.14 0L506.14 0L506.14 0Q503.81 1.28 501.18 1.28L501.18 1.28L501.18 1.28Q498.56 1.28 496.80 0.29L496.80 0.29L496.80 0.29Q495.04-0.70 494.53-2.37L494.53-2.37L494.53-2.37Q493.50-0.77 491.33 0.26L491.33 0.26L491.33 0.26Q489.15 1.28 486.24 1.28L486.24 1.28L486.24 1.28Q483.33 1.28 480.96 0.51L480.96 0.51L480.96 0.51Q478.59-0.26 477.09-1.92ZM490.59-27.90L490.59-27.90L490.59-27.90Q489.86-26.75 489.22-24.80L489.22-24.80L489.22-24.80Q488.58-22.85 487.52-17.63L487.52-17.63L487.52-17.63Q486.46-12.42 486.46-8.70L486.46-8.70L486.46-8.70Q486.46-4.99 487.04-3.90L487.04-3.90L487.04-3.90Q487.62-2.82 488.64-2.82L488.64-2.82L488.64-2.82Q490.69-2.82 492.19-4.77L492.19-4.77L492.19-4.77Q493.70-6.72 494.27-10.18L494.27-10.18L497.66-28.93L497.66-28.93Q496.32-30.08 494.75-30.08L494.75-30.08L494.75-30.08Q493.18-30.08 492.26-29.57L492.26-29.57L492.26-29.57Q491.33-29.06 490.59-27.90ZM541.57 1.28L541.57 1.28L541.57 1.28Q533.82 1.28 533.82-4.74L533.82-4.74L533.82-4.74Q533.89-6.40 534.40-9.22L534.40-9.22L535.55-15.10L535.55-15.10Q537.28-23.42 537.28-25.28L537.28-25.28L537.28-25.28Q537.28-28.99 535.10-28.99L535.10-28.99L535.10-28.99Q531.46-28.99 529.54-19.46L529.54-19.46L525.76 0L512.90 1.28L519.55-32.70L530.05-33.92L529.02-27.65L529.02-27.65Q532.03-33.92 541.25-33.92L541.25-33.92L541.25-33.92Q545.73-33.92 547.62-32.03L547.62-32.03L547.62-32.03Q549.50-30.14 549.50-25.92L549.50-25.92L549.50-25.92Q549.50-21.95 547.46-12.67L547.46-12.67L547.46-12.67Q546.50-8.51 546.50-6.94L546.50-6.94L546.50-6.94Q546.50-5.38 547.36-4.48L547.36-4.48L547.36-4.48Q548.22-3.58 549.50-3.46L549.50-3.46L549.50-3.46Q548.86-1.28 546.66 0L546.66 0L546.66 0Q544.45 1.28 541.57 1.28ZM569.54-11.01L569.54-11.01L569.54-11.01Q568.13-12.80 568.13-14.62L568.13-14.62L568.13-14.62Q568.13-16.45 569.98-17.70L569.98-17.70L569.98-17.70Q571.84-18.94 575.23-18.94L575.23-18.94L575.23-18.94Q576.77-18.94 578.75-18.56L578.75-18.56L582.85-17.79L586.62-16.96L586.62-16.96Q588.42-16.58 589.63-16.58L589.63-16.58L589.63-16.58Q590.85-16.58 592.19-17.12L592.19-17.12L592.19-17.12Q593.54-17.66 594.05-18.62L594.05-18.62L594.05-18.62Q595.39-17.09 595.39-15.17L595.39-15.17L595.39-15.17Q595.39-13.25 593.57-11.90L593.57-11.90L593.57-11.90Q591.74-10.56 588.48-10.56L588.48-10.56L588.48-10.56Q586.69-10.56 582.98-11.33L582.98-11.33L582.98-11.33Q575.87-12.80 574.43-12.80L574.43-12.80L574.43-12.80Q572.99-12.80 571.55-12.32L571.55-12.32L571.55-12.32Q570.11-11.84 569.54-11.01Z" fill="#475f40"></path></g></g><style>text {
  font-size: 64px;
  font-family: Arial Black;
  dominant-baseline: central;
  text-anchor: middle;
}</style></svg>
